<svg width="40" height="55" viewBox="0 0 40 55" fill="none" xmlns="http://www.w3.org/2000/svg">
<path d="M29.7915 54.9437C29.7173 54.8838 29.7184 54.862 29.8126 54.5626C29.8452 54.4591 29.8713 54.3339 29.8707 54.2795C29.8685 54.1053 29.7727 53.7459 29.6713 53.5336C29.5146 53.2081 29.4038 52.9244 29.3888 52.8128C29.3755 52.7154 29.3445 52.6315 29.2897 52.5417C29.2764 52.5199 29.231 52.4388 29.1883 52.3604C29.1457 52.2826 29.0792 52.1606 29.0404 52.0893C29.0017 52.0185 28.9169 51.884 28.8521 51.7904C28.7873 51.6973 28.7003 51.546 28.6588 51.4545C28.5801 51.2825 28.5336 51.1943 28.4428 51.0473C28.3885 50.9585 28.3276 50.817 28.2749 50.6558C28.2589 50.6063 28.2279 50.5426 28.2068 50.5143C28.1858 50.4865 28.168 50.4484 28.168 50.4299C28.168 50.4114 28.1176 50.2993 28.0567 50.1811C27.9952 50.0624 27.9448 49.9481 27.9448 49.9263C27.9448 49.9051 27.9193 49.8583 27.8889 49.8218C27.8584 49.7859 27.8329 49.7396 27.8329 49.7189C27.8329 49.6699 27.7216 49.4146 27.6784 49.3639C27.6601 49.3427 27.6363 49.273 27.6263 49.2093C27.5926 49.0008 27.4995 48.7166 27.3643 48.4085C27.3173 48.3018 27.2331 48.0345 27.1771 47.814C27.1212 47.5941 27.0492 47.3616 27.0182 47.2979C26.9655 47.1901 26.8847 46.9478 26.8282 46.7295C26.7911 46.5852 26.7484 46.4682 26.7207 46.4361C26.7069 46.4197 26.6864 46.3615 26.6759 46.3071C26.6653 46.2526 26.6199 46.1606 26.5745 46.1029C26.5296 46.0452 26.4925 45.9804 26.4925 45.9586C26.4925 45.9151 26.4421 45.7577 26.4072 45.693C26.395 45.6695 26.3762 45.6086 26.3657 45.5568C26.3552 45.5051 26.3352 45.4567 26.3219 45.4491C26.3081 45.4409 26.297 45.4011 26.297 45.3603C26.297 45.3195 26.2721 45.2471 26.2422 45.1992C26.1408 45.0407 25.886 44.2056 25.9165 44.1321C25.9237 44.1152 25.912 44.069 25.8899 44.0303C25.8683 43.9911 25.8506 43.9345 25.8506 43.9045C25.8517 43.7287 25.6428 43.0057 25.3083 42.0279C25.2717 41.9212 25.2413 41.8113 25.2407 41.7824C25.2396 41.7378 25.2058 41.5853 25.1238 41.2532C25.0734 41.0496 25.007 40.8237 24.9837 40.7752C24.9699 40.7469 24.9383 40.656 24.9134 40.5738C24.868 40.4225 24.7572 40.2793 24.4791 40.0109C24.4115 39.9456 24.3202 39.847 24.2764 39.7915C24.2044 39.6995 24.1983 39.6755 24.2105 39.5313C24.2265 39.3413 24.2088 39.2389 24.1573 39.2204C24.1368 39.2133 24.0692 39.2444 24.0078 39.2895C23.8948 39.3717 23.5613 39.5089 23.1692 39.6331C23.0539 39.6701 22.8906 39.7256 22.8064 39.7572C22.7216 39.7882 22.5582 39.8214 22.443 39.8296C22.3029 39.8399 22.2015 39.8633 22.1361 39.8998C22.0641 39.9407 21.9722 39.9592 21.7872 39.9706C21.6487 39.9788 21.4726 40.0049 21.3961 40.0278C21.2693 40.0659 20.9508 40.0953 20.2562 40.1328C19.9887 40.147 19.93 40.1279 19.93 40.0245C19.93 39.9379 20.0031 39.884 20.1211 39.884C20.1781 39.884 20.2496 39.8688 20.2795 39.8497C20.31 39.8312 20.3786 39.7997 20.4324 39.7801C20.5382 39.7419 20.6567 39.6723 20.7675 39.5841C20.8062 39.553 20.865 39.5204 20.8988 39.5111C20.9325 39.5019 21.0267 39.4218 21.1081 39.3342C21.2771 39.1518 21.3546 39.0854 21.3995 39.0843C21.4172 39.0837 21.4837 39.0201 21.5479 38.9427C21.6127 38.8654 21.7301 38.7571 21.8099 38.7016C21.8897 38.646 21.9733 38.5666 21.996 38.5252C22.0187 38.4843 22.0785 38.4098 22.1284 38.3608C22.1788 38.3112 22.2198 38.2606 22.2198 38.2481C22.2198 38.217 22.3538 38.063 22.5167 37.9073C22.6995 37.7331 22.9105 37.4913 22.9836 37.3721C23.0168 37.3188 23.0628 37.2692 23.0866 37.2621C23.1099 37.2551 23.1498 37.2169 23.1753 37.1777C23.2002 37.1386 23.2606 37.0672 23.3098 37.0199C23.3835 36.9486 23.3957 36.9202 23.3813 36.8544C23.3719 36.8103 23.3453 36.7553 23.3226 36.7324C23.2999 36.709 23.281 36.672 23.281 36.6508C23.281 36.6295 23.2727 36.6045 23.2633 36.5952C23.2312 36.5658 23.1154 36.2865 23.0412 36.0612C22.9548 35.7977 22.8424 35.5505 22.7764 35.4797C22.7499 35.4514 22.7199 35.3872 22.7089 35.3376C22.6834 35.2173 22.5876 34.9544 22.5388 34.8689C22.5167 34.8302 22.5061 34.7682 22.515 34.7268C22.5255 34.6778 22.5067 34.6027 22.4591 34.5036C22.4197 34.4219 22.3876 34.3403 22.3876 34.3228C22.3876 34.3054 22.3577 34.239 22.3217 34.1748C22.2813 34.1045 22.248 33.9886 22.2364 33.8791C22.2248 33.7735 22.1949 33.6657 22.1627 33.6178C22.1328 33.5726 22.1079 33.4931 22.1079 33.4409C22.1079 33.3881 22.0946 33.3217 22.078 33.2933C22.047 33.2389 22.0121 33.1322 21.9002 32.7429C21.862 32.6096 21.8127 32.4974 21.7844 32.4784C21.7434 32.4506 21.7407 32.4348 21.7684 32.3793C21.8132 32.2878 21.8116 31.7695 21.7661 31.7145C21.7335 31.6753 21.7196 31.6753 21.5773 31.72C21.307 31.8055 21.2289 31.8104 21.1657 31.7478C21.1347 31.7173 21.1031 31.6454 21.0943 31.5877C21.086 31.5284 21.05 31.4538 21.0112 31.4146C20.9741 31.3775 20.9359 31.3264 20.9264 31.3013C20.8888 31.2033 20.7176 31.2894 20.6717 31.4298C20.6484 31.4995 20.5276 31.592 20.459 31.592C20.3775 31.592 20.2363 31.3977 20.1521 31.1707C20.0441 30.8789 20.0302 30.7417 20.084 30.494C20.1089 30.3807 20.136 30.2495 20.1443 30.2038C20.1709 30.0557 20.0147 29.7835 19.904 29.784C19.8796 29.7846 19.8048 29.8026 19.7367 29.8243C19.6292 29.8592 19.6082 29.8592 19.5733 29.8265C19.4415 29.7046 19.5428 29.0523 19.7311 28.8057C19.7599 28.7682 19.8054 28.6549 19.832 28.5537C19.8884 28.3364 19.8746 28.2983 19.6996 28.1894C19.565 28.1062 19.5406 28.0354 19.6043 27.914C19.6553 27.8165 19.7273 27.4235 19.7688 27.0168C19.7982 26.7277 19.7971 26.713 19.7383 26.6253C19.6885 26.5502 19.683 26.5219 19.7073 26.4631C19.74 26.3825 19.7239 26.1414 19.6746 25.9786C19.6558 25.9143 19.6442 25.7238 19.6475 25.5131C19.653 25.1843 19.6481 25.1478 19.5916 25.0607C19.5572 25.009 19.5201 24.9137 19.5085 24.85C19.4974 24.7863 19.4575 24.6573 19.4199 24.5636C19.3827 24.47 19.3445 24.3481 19.3351 24.2925C19.3257 24.237 19.3058 24.1477 19.2914 24.0944C19.2692 24.0105 19.2747 23.9844 19.3323 23.9054C19.3689 23.8554 19.3994 23.7868 19.3994 23.7536C19.3994 23.7198 19.3312 23.569 19.2476 23.4187C19.1645 23.2685 19.0809 23.0785 19.062 22.9968C19.0438 22.9152 19 22.8014 18.9657 22.7448C18.9042 22.6435 18.8615 22.5319 18.8106 22.3381C18.6649 21.7849 18.6416 21.5911 18.6278 20.7968C18.615 20.1081 18.6106 20.0559 18.553 19.9443C18.5037 19.849 18.4793 19.8272 18.4289 19.8338C18.3791 19.8403 18.3658 19.8294 18.3658 19.782C18.3658 19.7494 18.3027 19.6253 18.2257 19.5071C18.1215 19.3465 18.0778 19.248 18.054 19.1195C18.018 18.9208 18.024 17.5603 18.0617 17.4683C18.075 17.4356 18.0927 17.1248 18.101 16.7774C18.116 16.1524 18.1154 16.1432 18.0468 15.9575C18.0085 15.8546 17.9626 15.706 17.9454 15.6282C17.9277 15.5498 17.8966 15.461 17.8756 15.4305C17.8163 15.344 17.8678 14.8132 17.9565 14.5949C17.9936 14.5023 18.0434 14.3804 18.0661 14.3237C18.0894 14.2666 18.1276 14.1855 18.1514 14.143C18.1753 14.1 18.2711 13.9181 18.3641 13.7379C18.4577 13.5572 18.5646 13.3873 18.6034 13.3596C18.6416 13.3318 18.6738 13.2812 18.6743 13.248C18.6749 13.2082 18.7064 13.169 18.764 13.1353C18.8128 13.107 18.8804 13.0454 18.9147 12.9981C18.949 12.9513 19.0277 12.8756 19.0892 12.8304C19.2099 12.7417 19.3573 12.574 19.5107 12.3497C19.5639 12.2724 19.642 12.1733 19.6852 12.1297C19.7467 12.0677 19.7599 12.0345 19.7467 11.9778C19.7206 11.8695 19.6098 11.7018 19.5323 11.6539C19.4199 11.5842 19.1601 11.3093 19.0958 11.1917C19.0626 11.1318 18.9518 11.0012 18.8493 10.9015C18.7048 10.7605 18.6455 10.7202 18.5846 10.7202C18.5342 10.7202 18.5054 10.7066 18.5054 10.6827C18.5054 10.6413 18.1775 10.3843 18.1243 10.3843C18.1066 10.3843 18.0279 10.3381 17.9504 10.2809C17.8728 10.2243 17.7909 10.1775 17.7681 10.1775C17.7454 10.1775 17.6695 10.1317 17.5992 10.0751C17.5289 10.019 17.4181 9.95099 17.3533 9.92431C17.2879 9.89764 17.181 9.8334 17.1145 9.78222C16.9595 9.66136 16.8343 9.63849 16.708 9.70709C16.6559 9.7354 16.5712 9.76698 16.5191 9.77678C16.3413 9.81107 16.1735 9.87042 16.1403 9.9107C16.1192 9.93629 16.0838 9.94609 16.0455 9.93683C16.0117 9.92867 15.9043 9.95044 15.8035 9.98529C15.7038 10.0201 15.5803 10.0484 15.5282 10.0484C15.4761 10.0484 15.4335 10.0599 15.4335 10.0746C15.4335 10.0887 15.4135 10.1002 15.3881 10.1002C15.3631 10.1002 15.2036 10.1475 15.0336 10.2052C14.8635 10.2635 14.6985 10.3114 14.6669 10.3119C14.5738 10.3136 14.313 10.3849 14.1551 10.4513C13.9585 10.5341 13.815 10.5324 13.7042 10.4464C13.6571 10.4099 13.6184 10.3653 13.6184 10.3484C13.6184 10.331 13.6018 10.2951 13.5807 10.2695C13.5447 10.2232 13.5364 10.2237 13.3542 10.2836C13.2412 10.3206 13.1481 10.3691 13.1232 10.4039C13.0927 10.4459 13.0534 10.4622 12.9797 10.4627C12.9243 10.4638 12.8346 10.4796 12.7809 10.4981C12.7272 10.5172 12.5449 10.5765 12.376 10.6293C12.2071 10.6827 12.0309 10.7415 11.9849 10.76C11.939 10.7785 11.8254 10.8133 11.7335 10.8384C11.6415 10.8629 11.554 10.8928 11.5396 10.9048C11.5247 10.9168 11.4898 10.9266 11.4621 10.9266C11.4344 10.9266 11.3895 10.9375 11.3629 10.95C11.2256 11.0159 10.6185 11.2048 10.449 11.2342C10.3875 11.2451 10.2745 11.2788 10.1975 11.3088C9.96434 11.4002 9.46307 11.5233 9.33789 11.5195C9.21105 11.5156 9.06149 11.5456 8.96069 11.5957C8.92579 11.6125 8.88591 11.6196 8.87151 11.6115C8.85655 11.6033 8.79119 11.6191 8.72528 11.6463C8.65937 11.6741 8.50539 11.7105 8.38242 11.7274C8.25946 11.7443 8.11877 11.7808 8.07003 11.8085C8.02073 11.8363 7.94041 11.8564 7.88835 11.8532C7.83739 11.8505 7.72218 11.8684 7.6319 11.8929C7.54161 11.9174 7.45244 11.9316 7.43305 11.925C7.41366 11.918 7.35495 11.9386 7.30344 11.9708C7.25193 12.0034 7.1777 12.0366 7.13949 12.0448C6.90685 12.0949 6.56842 12.1831 6.39948 12.2375C6.29203 12.2718 6.08487 12.323 5.93864 12.3508C5.79297 12.378 5.62292 12.4112 5.56144 12.4243C5.50051 12.4373 5.38697 12.4607 5.31053 12.4771C5.14713 12.5114 4.88237 12.5685 4.7239 12.6045C4.66247 12.6181 4.5368 12.6426 4.44463 12.6589C4.35246 12.6752 4.22495 12.7052 4.1612 12.7259C4.09745 12.746 3.98434 12.7732 3.90984 12.7858C3.83534 12.7983 3.69898 12.8277 3.60686 12.8516C3.43078 12.8968 3.18026 12.9349 2.92264 12.9551C2.83817 12.9616 2.73764 12.9779 2.69925 12.9915C2.61362 13.0215 2.41749 13.0558 2.01503 13.1108C1.84609 13.1336 1.67643 13.1587 1.63805 13.1669C1.59961 13.1745 1.51165 13.1837 1.44253 13.1875C1.3734 13.1908 1.21632 13.206 1.09346 13.2202C0.640377 13.2746 0.406745 13.2104 0.214821 12.979C-0.0425732 12.6687 -0.0558667 12.6219 0.106923 12.5985C0.268161 12.5756 0.496864 12.507 0.54472 12.4678C0.585209 12.4341 0.78511 12.3584 0.9957 12.2974C1.03414 12.286 1.17234 12.2283 1.30289 12.1684C1.43344 12.1085 1.65965 12.0209 1.8056 11.9729C1.9515 11.9256 2.19028 11.8445 2.33618 11.7927C2.48213 11.741 2.68319 11.6773 2.783 11.6512C2.88287 11.6251 3.05253 11.5663 3.16004 11.5211C3.26755 11.4754 3.41206 11.4231 3.48119 11.404C3.68048 11.3501 4.01514 11.2391 4.14337 11.1841C4.20806 11.1569 4.31923 11.122 4.39046 11.1073C4.46163 11.0926 4.56576 11.0589 4.62187 11.0327C4.81479 10.9418 4.91948 10.9048 5.03137 10.8879C5.0923 10.8781 5.15544 10.8613 5.17095 10.8504C5.22634 10.8095 5.87162 10.5602 5.97022 10.5411C6.02616 10.5302 6.11367 10.4976 6.16574 10.4687C6.21725 10.4393 6.39561 10.3664 6.56177 10.307C6.72739 10.2472 6.94728 10.153 7.04975 10.0974C7.15222 10.0425 7.25026 9.99672 7.26688 9.99672C7.2835 9.99672 7.37157 9.96079 7.46241 9.91615C7.74711 9.77732 7.83407 9.73867 7.85899 9.73867C7.87173 9.73867 7.92546 9.70927 7.97753 9.67388C8.02959 9.63849 8.10437 9.6091 8.14425 9.6091C8.18413 9.6091 8.32039 9.56935 8.44723 9.5209C8.57407 9.4719 8.71531 9.42454 8.76129 9.41528C8.8067 9.40603 8.87871 9.37228 8.92025 9.34015C8.96235 9.30803 9.05762 9.26775 9.13295 9.25087C9.20772 9.23345 9.32958 9.19098 9.40436 9.15614C9.47913 9.12076 9.60653 9.07938 9.6874 9.06359C9.76826 9.0478 9.89067 9.00697 9.95991 8.97322C10.0291 8.93946 10.1072 8.9117 10.1344 8.9117C10.1615 8.9117 10.3438 8.84147 10.5398 8.75491C10.7354 8.66835 10.9331 8.58287 10.9796 8.56382C11.0256 8.54531 11.2361 8.45276 11.4477 8.35857C11.6593 8.26439 11.8692 8.18001 11.9146 8.17184C11.96 8.16367 12.0121 8.14026 12.0293 8.12066C12.047 8.10106 12.0841 8.08528 12.1123 8.08528C12.14 8.08528 12.1794 8.06459 12.1999 8.039C12.2198 8.01341 12.2912 7.97748 12.3583 7.95952C12.4253 7.94101 12.5089 7.89963 12.5438 7.86751C12.659 7.76081 12.7997 7.69493 12.8734 7.71181C12.9199 7.7227 12.9764 7.708 13.0501 7.66608C13.1093 7.63232 13.1808 7.60946 13.2085 7.6149C13.2423 7.62144 13.2644 7.60619 13.2744 7.5708C13.2838 7.5376 13.3126 7.51691 13.3492 7.51691C13.3824 7.51691 13.4467 7.4935 13.4926 7.46519C13.5386 7.43688 13.6173 7.41401 13.6671 7.41401C13.7175 7.41401 13.758 7.40204 13.758 7.38788C13.758 7.37373 13.8133 7.36175 13.8804 7.36175C14.0127 7.36175 14.3168 7.25232 14.3168 7.20441C14.3168 7.18863 14.2664 7.12003 14.2049 7.05198C14.1435 6.98392 14.0931 6.90934 14.0931 6.88593C14.0931 6.86198 14.0737 6.80808 14.0504 6.76561C14.0266 6.72315 14.0172 6.6747 14.0294 6.65728C14.051 6.62624 14.0587 6.56364 14.0748 6.27727C14.0825 6.1477 14.1086 6.06332 14.1811 5.9332C14.1955 5.90762 14.2 5.86461 14.1911 5.83793C14.1784 5.80145 14.1955 5.77859 14.2581 5.74865C14.3041 5.72687 14.3606 5.7089 14.3839 5.7089C14.4431 5.7089 14.4841 5.6267 14.4841 5.50856C14.4841 5.43289 14.5029 5.39151 14.5617 5.34033C14.6464 5.26466 14.8403 5.19225 14.9571 5.19225C14.9981 5.19225 15.0447 5.18028 15.0607 5.16558C15.0807 5.14707 15.1139 5.14707 15.1676 5.16612C15.2518 5.19552 15.3498 5.17919 15.3498 5.13563C15.3498 5.1193 15.3853 5.11495 15.4407 5.1242C15.4933 5.13346 15.5902 5.12257 15.6711 5.09861C15.8616 5.04254 15.9126 5.0371 16.4288 5.02022C16.7285 5.01042 16.9113 5.01532 16.9744 5.03437C17.052 5.05778 17.2691 5.21349 17.3704 5.31801C17.6175 5.57334 17.7676 5.66698 17.9227 5.66263C17.977 5.661 18.0119 5.67569 18.0229 5.704C18.0595 5.79982 18.0844 5.80853 18.1996 5.76716C18.2606 5.74483 18.3099 5.71054 18.3099 5.69094C18.3099 5.67134 18.3298 5.64847 18.3542 5.63976C18.3785 5.63105 18.4096 5.59675 18.4234 5.563C18.4472 5.50529 18.5613 5.47372 18.5613 5.52544C18.5613 5.56899 18.6389 5.57552 18.717 5.53796C18.7596 5.51727 18.81 5.50584 18.8288 5.51237C18.8471 5.5189 18.8975 5.49005 18.9413 5.44813C18.9845 5.40621 19.036 5.37735 19.0554 5.38389C19.0742 5.39096 19.0969 5.38661 19.1052 5.37409C19.1136 5.36157 19.2304 5.31965 19.3645 5.28099C19.4991 5.24234 19.6276 5.1977 19.6508 5.18191C19.7306 5.12747 19.8176 5.08881 19.8596 5.08881C19.8829 5.08881 19.9017 5.07248 19.9017 5.05234C19.9017 5.00225 20.043 4.97721 20.2053 4.9979C20.3249 5.01314 20.3465 5.00824 20.4069 4.9489C20.444 4.91297 20.4878 4.88303 20.5033 4.88248C20.5193 4.88248 20.5792 4.84165 20.6362 4.79156C20.7137 4.72406 20.7642 4.70119 20.8367 4.70119C20.9076 4.70119 20.9453 4.68486 20.9763 4.64185C21.0317 4.56345 21.1879 4.48451 21.3961 4.42898C21.4881 4.40448 21.6138 4.36311 21.6753 4.33698C21.8276 4.2729 22.3749 4.09057 22.5167 4.05682C22.5804 4.04174 22.6479 4.01212 22.6668 3.991C22.6856 3.96988 22.7532 3.93993 22.8163 3.92442C22.88 3.9089 22.9886 3.86279 23.0584 3.82191C23.1276 3.78107 23.2694 3.71814 23.373 3.6821C23.4766 3.64606 23.6112 3.58748 23.6721 3.55193C23.733 3.51638 23.8128 3.48725 23.8493 3.48725C23.8865 3.48725 24.0382 3.43499 24.1872 3.37102C24.3362 3.30711 24.4708 3.25479 24.4869 3.25479C24.5029 3.25479 24.5528 3.22572 24.5988 3.19022C24.6442 3.15467 24.7151 3.11945 24.7561 3.11199C24.7976 3.10447 24.8873 3.08008 24.9566 3.05787C25.0258 3.03561 25.1637 2.99532 25.2634 2.96832C25.3626 2.94131 25.4866 2.9007 25.5382 2.87811C25.5897 2.85546 25.7182 2.81479 25.824 2.78773C25.9292 2.76062 26.1408 2.68723 26.2931 2.62468C26.446 2.56213 26.6127 2.50284 26.6642 2.49293C26.7157 2.48308 26.8016 2.44829 26.8559 2.41563C26.9096 2.38296 27.0038 2.34186 27.0652 2.32427C27.1267 2.30669 27.1893 2.28399 27.2048 2.27381C27.2203 2.26362 27.3544 2.21223 27.5028 2.15964C27.6518 2.107 27.8041 2.04129 27.8424 2.01358C27.8806 1.98586 27.9254 1.96322 27.9421 1.96322C27.9592 1.96322 28.0196 1.93997 28.0772 1.91155C28.1343 1.88313 28.198 1.85989 28.219 1.85989C28.2395 1.85989 28.353 1.81394 28.4705 1.75781C28.7674 1.61648 29.2144 1.42076 29.2404 1.42076C29.2526 1.42076 29.2947 1.39751 29.3334 1.3691C29.3728 1.34068 29.4226 1.31743 29.4453 1.31743C29.4963 1.31743 29.5772 1.28406 30.1443 1.03009C30.3941 0.918211 30.6052 0.82664 30.6124 0.82664C30.6201 0.82664 30.7425 0.773614 30.8843 0.708774C31.0261 0.643989 31.2521 0.557645 31.3867 0.516868C31.5208 0.476146 31.7373 0.395463 31.8675 0.337646C31.9982 0.27983 32.1284 0.23252 32.1572 0.23252C32.2131 0.23252 32.5089 0.0957082 32.5826 0.0358225C32.6069 0.0161146 32.6535 0 32.6862 0C32.7321 0 32.7487 0.0193267 32.7587 0.0839489C32.7659 0.130115 32.7842 0.238454 32.7992 0.324635C32.8291 0.494601 32.8019 0.695654 32.7377 0.786082C32.6762 0.872807 32.3876 1.12825 32.263 1.20637C32.1993 1.24611 32.0702 1.33681 31.9761 1.40786C31.8813 1.47885 31.7623 1.56323 31.7108 1.59536C31.6592 1.62742 31.5075 1.72623 31.374 1.81492C31.2399 1.9036 31.0721 2.00987 31.0007 2.05119C30.9292 2.09246 30.8439 2.14832 30.8107 2.17538C30.6678 2.29368 30.4806 2.4282 30.4601 2.4282C30.4368 2.4282 30.1493 2.58331 30.0873 2.62931C30.0685 2.64319 29.9809 2.68985 29.8929 2.73302C29.8048 2.77619 29.6996 2.8357 29.6586 2.86526C29.6181 2.89482 29.57 2.91899 29.5511 2.91899C29.5323 2.91899 29.4935 2.94349 29.4642 2.97349C29.4348 3.00343 29.3368 3.06446 29.2465 3.1091C29.0465 3.2077 29.0244 3.22038 28.8693 3.32611C28.8017 3.37211 28.7308 3.40978 28.712 3.40978C28.6931 3.40978 28.6605 3.429 28.6394 3.45252C28.6184 3.47604 28.5635 3.5111 28.517 3.53043C28.471 3.54981 28.3641 3.6122 28.2799 3.66914C28.1952 3.72609 28.0373 3.81189 27.9293 3.85985C27.8208 3.90781 27.6845 3.97706 27.6258 4.01376C27.5676 4.0504 27.4552 4.11094 27.376 4.14828C27.2973 4.18558 27.2009 4.23212 27.1627 4.25172C27.1245 4.27127 27.0652 4.28749 27.0315 4.28765C26.9971 4.28787 26.9473 4.30921 26.9196 4.33534C26.8919 4.36093 26.8066 4.41483 26.7301 4.45511C26.6531 4.49486 26.5562 4.56073 26.5152 4.60156C26.4715 4.64457 26.4105 4.6756 26.3707 4.6756C26.3324 4.6756 26.2471 4.71317 26.1807 4.75944C25.9602 4.91242 25.8339 4.98538 25.7896 4.98538C25.7658 4.98538 25.7126 5.00987 25.6722 5.03927C25.6318 5.06867 25.5287 5.12747 25.444 5.16939C25.3587 5.21131 25.2551 5.27936 25.2136 5.32128C25.1283 5.40675 24.6785 5.64684 24.468 5.71925C24.391 5.74592 24.303 5.7873 24.2725 5.81234C24.2415 5.83684 24.0282 5.94137 23.7978 6.04426C23.5674 6.1477 23.3597 6.24243 23.337 6.25495C23.3137 6.26693 23.2761 6.28435 23.2534 6.29252C23.2063 6.30994 22.9903 6.40793 22.9038 6.45094C22.8734 6.46673 22.7476 6.52172 22.6247 6.57344C22.5017 6.6257 22.3826 6.67905 22.3594 6.69212C22.3367 6.70518 22.2547 6.74656 22.1777 6.78412C22.1013 6.82169 21.9977 6.88103 21.9484 6.91642C21.8985 6.95126 21.8044 6.991 21.739 7.00461C21.6736 7.01822 21.559 7.06395 21.4842 7.10696C21.4089 7.14943 21.3081 7.18917 21.2593 7.19461C21.1353 7.20931 20.6384 7.42817 20.6185 7.47717C20.6091 7.49949 20.6152 7.54576 20.6323 7.58006C20.6827 7.68241 20.6395 7.75754 20.4462 7.90235C20.2474 8.05207 20.1975 8.11413 20.2213 8.18436C20.2474 8.25895 20.7016 8.62643 20.8373 8.68196C20.9065 8.71027 20.984 8.76253 21.0084 8.79737C21.0843 8.90408 21.3064 8.98955 21.5147 8.99282C21.6149 8.99391 21.7429 9.01296 21.7983 9.03474C21.8531 9.05651 21.9805 9.09517 22.0802 9.12021C22.2835 9.17247 22.5161 9.24379 22.5892 9.27755C22.6164 9.28952 22.6518 9.29932 22.669 9.29932C22.6856 9.29932 22.7222 9.32546 22.7499 9.35703C22.7836 9.39514 22.859 9.42563 22.9781 9.44849C23.0756 9.467 23.1897 9.48878 23.2312 9.49695C23.2727 9.50511 23.3148 9.53342 23.3237 9.56064C23.3331 9.58732 23.3741 9.61617 23.4156 9.62488C23.6688 9.67878 23.9684 9.77024 24.0177 9.8089C24.1274 9.896 24.1396 9.90961 24.185 9.99073C24.2105 10.0354 24.2875 10.1029 24.3562 10.1404C24.4254 10.178 24.4819 10.2227 24.4819 10.2401C24.4819 10.2836 24.6298 10.4099 24.6807 10.4099C24.7893 10.4099 24.8502 10.1056 24.791 9.85953C24.7766 9.80019 24.7494 9.65864 24.73 9.54486C24.6774 9.23127 24.6314 9.15886 24.3041 8.87795C23.985 8.60465 23.9197 8.50829 23.8776 8.25023L23.8521 8.09181L23.9573 7.98238C24.015 7.92195 24.1219 7.83321 24.1944 7.78585C24.3174 7.70473 24.3373 7.69983 24.4813 7.71453C24.5661 7.72324 24.6481 7.73903 24.6636 7.74937C24.6785 7.75972 24.7322 7.77496 24.7821 7.78367C24.8569 7.79728 24.8801 7.78911 24.9161 7.73794C24.956 7.68187 24.956 7.6688 24.9167 7.59748C24.8724 7.51854 24.8585 7.34923 24.8901 7.27301C24.8995 7.2496 24.9499 7.21476 25.002 7.19461C25.0762 7.16576 25.0962 7.14289 25.0962 7.08791C25.0962 7.04925 25.1172 6.9959 25.1427 6.96977C25.1981 6.91315 25.2463 6.83965 25.3122 6.71008C25.3598 6.61699 25.4362 6.58324 25.4734 6.63877C25.4999 6.67851 25.6157 6.66925 25.6556 6.62461C25.6772 6.60066 25.6877 6.53642 25.6822 6.46292C25.665 6.23862 25.6761 6.14063 25.7209 6.11722C25.7442 6.10524 25.7802 6.08074 25.8002 6.06332C25.8201 6.0459 25.8943 6.0067 25.9652 5.97567C26.0849 5.9234 26.097 5.92231 26.1402 5.96206C26.1779 5.99744 26.1962 5.99908 26.2411 5.97295C26.3186 5.9283 26.3441 5.9332 26.3618 5.99527C26.3751 6.04372 26.39 6.04753 26.4925 6.03174C26.5612 6.02085 26.6387 6.02575 26.6842 6.04318C26.7456 6.06659 26.7778 6.06441 26.8431 6.03283C26.9478 5.98274 27.0625 5.98166 27.1068 6.0312C27.1334 6.0606 27.2004 6.06931 27.3893 6.06658C27.5493 6.06495 27.6518 6.07475 27.6784 6.09544C27.7127 6.12157 27.7343 6.11395 27.8025 6.05134C27.8739 5.98492 27.8828 5.96097 27.8695 5.87168L27.8545 5.76825L27.9753 5.75028C28.0794 5.73449 28.1027 5.73994 28.142 5.78839C28.1741 5.82813 28.2257 5.84773 28.3165 5.85481C28.4766 5.86787 28.5015 5.83303 28.4943 5.60873C28.4876 5.39641 28.5286 5.3632 28.7751 5.38062C28.902 5.38933 28.9573 5.38334 28.9806 5.35721C29.0222 5.31039 29.062 5.31148 29.062 5.3583C29.062 5.41655 29.1169 5.43397 29.1878 5.39859C29.2376 5.37409 29.2742 5.37354 29.3429 5.39532C29.3927 5.41165 29.4675 5.42472 29.5096 5.42472C29.5511 5.42472 29.6309 5.44214 29.6857 5.46337C29.7411 5.4846 29.8231 5.50203 29.8679 5.50203C29.9145 5.50203 29.9566 5.5189 29.9654 5.54068C29.9743 5.56246 30.002 5.57988 30.0269 5.57988C30.0524 5.57988 30.1887 5.63214 30.331 5.69584C30.4734 5.76008 30.6007 5.81234 30.6146 5.81289C30.6284 5.81289 30.6711 5.83575 30.7093 5.86352C30.7481 5.89183 30.8024 5.91469 30.8301 5.91469C30.8578 5.91524 30.922 5.94464 30.9724 5.98002C31.0228 6.01541 31.0743 6.04481 31.0865 6.04481C31.0993 6.04481 31.2034 6.09871 31.318 6.16458C31.5169 6.27945 31.5291 6.28272 31.5994 6.2457C31.7146 6.18472 31.8354 6.17383 31.9545 6.21303C32.0996 6.26094 32.2453 6.26203 32.2453 6.21521C32.2453 6.19561 32.1998 6.13845 32.1439 6.08836C32.0619 6.01487 32.0459 5.98492 32.0608 5.93103C32.0819 5.85372 32.1716 5.82432 32.3134 5.84882C32.4319 5.86951 32.6723 6.08237 32.7897 6.27074L32.8739 6.40521L33.0451 6.40576C33.2063 6.4063 33.2201 6.4014 33.2866 6.32083C33.3503 6.24352 33.3553 6.21902 33.342 6.06277C33.3331 5.96423 33.3104 5.87767 33.2888 5.8608C33.2677 5.84501 33.2506 5.80962 33.2506 5.7824C33.2506 5.6844 32.8734 5.36429 32.6363 5.26139C32.4557 5.183 32.2608 5.14108 32.073 5.14053C31.9052 5.14053 31.8808 5.134 31.8287 5.07248C31.7966 5.03492 31.7706 4.96741 31.7706 4.92277C31.7706 4.76761 31.42 4.39251 31.1425 4.25031C31.05 4.2031 30.9154 4.15672 30.8422 4.14725C30.6877 4.12705 30.6257 4.07947 30.6257 3.9806C30.6257 3.89317 30.7027 3.84994 30.8771 3.839C30.9464 3.8347 31.0843 3.79871 31.184 3.75903C31.2843 3.71939 31.4222 3.68303 31.4914 3.67823C32.0459 3.63969 32.2757 3.61868 32.3754 3.59739C32.4391 3.58378 32.7155 3.57643 32.9897 3.58111C33.4444 3.58879 33.6101 3.60779 33.7674 3.67034C33.887 3.71787 34.077 3.77068 34.1302 3.77106C34.1606 3.77127 34.2487 3.79948 34.3257 3.83377C34.4027 3.86807 34.5345 3.92273 34.6192 3.95523C34.7034 3.98773 34.7915 4.02786 34.8148 4.04435C34.8375 4.0609 34.8901 4.08181 34.9311 4.09085C34.9721 4.09983 35.0413 4.13467 35.0851 4.16826C35.1283 4.20185 35.1909 4.23719 35.2241 4.24677C35.2573 4.25635 35.2994 4.28123 35.3183 4.30197C35.3371 4.32282 35.3797 4.3397 35.4135 4.3397C35.4833 4.3397 35.5686 4.41646 35.6367 4.54113C35.6622 4.58795 35.7121 4.63858 35.7475 4.65328C35.783 4.66853 35.8317 4.71698 35.8555 4.76217C35.8794 4.80681 35.9342 4.88248 35.9779 4.93039C36.0217 4.97775 36.1103 5.07684 36.1746 5.14979C36.2394 5.22274 36.3208 5.31148 36.3563 5.34741C36.5152 5.50747 36.5545 5.56191 36.564 5.6365C36.5695 5.68059 36.616 5.76389 36.667 5.82214C36.7185 5.88039 36.7739 5.97512 36.7905 6.03174C36.873 6.31593 37.0276 6.6747 37.0874 6.72043C37.1372 6.75799 37.1395 6.76834 37.1035 6.80808C37.0558 6.86143 37.0647 6.94364 37.1251 7.00625C37.1561 7.03891 37.1627 7.0792 37.1494 7.1565C37.135 7.24034 37.1428 7.27573 37.1876 7.32854C37.2187 7.36502 37.2447 7.42545 37.2453 7.46247C37.2458 7.49949 37.2635 7.55828 37.284 7.59313C37.3123 7.63995 37.3145 7.67152 37.2923 7.71616C37.268 7.76516 37.2741 7.79075 37.3234 7.85227C37.4026 7.9519 37.402 8.04009 37.3211 8.07276C37.2862 8.08691 37.2597 8.1125 37.2608 8.13046C37.2624 8.14843 37.2657 8.20831 37.268 8.26439C37.2713 8.34115 37.2857 8.37001 37.3278 8.38253C37.392 8.40104 37.402 8.47834 37.3461 8.52135C37.3184 8.54259 37.3112 8.60574 37.3184 8.76035C37.3245 8.88883 37.3167 8.98356 37.2979 9.0048C37.2801 9.02439 37.2752 9.0723 37.2862 9.11803C37.2962 9.16159 37.2896 9.2525 37.2707 9.32001C37.2458 9.41093 37.2447 9.47571 37.2669 9.57099C37.2929 9.68314 37.2896 9.7109 37.2425 9.78549C37.2126 9.83285 37.1943 9.88185 37.2026 9.89383C37.2109 9.9058 37.1865 9.945 37.1483 9.97984C37.1101 10.0152 37.0735 10.0713 37.0669 10.1045C37.0603 10.1377 37.0398 10.2401 37.0215 10.3326C37.0032 10.4252 36.9589 10.588 36.9234 10.6941C36.8874 10.8008 36.8453 10.9347 36.8298 10.9914C36.7617 11.238 36.7296 11.3333 36.6814 11.4323C36.6531 11.4901 36.6299 11.5521 36.6299 11.5701C36.6299 11.5886 36.6127 11.6343 36.5917 11.6719C36.5224 11.7966 36.4344 11.9866 36.4344 12.0121C36.4344 12.0252 36.3828 12.1385 36.3197 12.2631C36.2178 12.464 36.1203 12.6872 35.9968 13.003C35.9752 13.058 35.9375 13.1385 35.9131 13.1826C35.8494 13.2959 35.691 13.7597 35.6689 13.8964C35.6583 13.9595 35.6235 14.064 35.5908 14.1288C35.5271 14.2551 35.4617 14.4871 35.4589 14.5992C35.4578 14.6373 35.4307 14.7244 35.3986 14.793C35.352 14.8937 35.3399 14.9776 35.336 15.2302C35.3327 15.4501 35.3199 15.5557 35.2933 15.5851C35.2706 15.6107 35.264 15.6456 35.2762 15.6728C35.2878 15.6978 35.3016 15.9161 35.3072 16.1579C35.316 16.5787 35.3426 16.7959 35.3991 16.907C35.4396 16.987 35.4877 17.1438 35.48 17.1683C35.4756 17.1808 35.4866 17.2434 35.5038 17.3071C35.5847 17.6071 35.6373 17.839 35.6295 17.8613C35.6246 17.8744 35.6367 17.9131 35.6561 17.9468C35.6838 17.9947 35.6844 18.0187 35.6583 18.0573C35.6052 18.1357 35.6179 18.1744 35.7193 18.2462C35.8157 18.3143 35.8201 18.3252 35.871 18.6426C35.8877 18.746 35.9192 18.8059 36.0101 18.9055C36.0743 18.9763 36.1269 19.0585 36.1269 19.0885C36.1269 19.1505 36.1845 19.2387 36.2959 19.3487C36.3374 19.3901 36.3972 19.4739 36.4277 19.5349C36.4593 19.5964 36.5568 19.7036 36.6493 19.7777C36.8725 19.9579 36.9389 20.1479 36.7911 20.1833C36.7058 20.204 36.652 20.1686 36.4953 19.9878C36.4183 19.8985 36.3042 19.7804 36.2422 19.7243C36.1801 19.6688 36.0976 19.5637 36.0594 19.4913C36.0211 19.4189 35.9104 19.2757 35.814 19.1739C35.5913 18.9382 35.1499 18.3758 35.1499 18.3274C35.1499 18.3214 35.1072 18.2354 35.0557 18.1368C35.0036 18.0388 34.9527 17.9016 34.9422 17.833C34.9206 17.6948 34.8624 17.4928 34.786 17.2941C34.7295 17.1482 34.6148 16.4916 34.6187 16.337C34.6198 16.2809 34.6071 15.9504 34.5899 15.602C34.5528 14.8415 34.5528 15.0195 34.591 14.3787C34.6087 14.0826 34.6348 13.8114 34.6492 13.7766C34.6636 13.7418 34.6752 13.6459 34.6752 13.5632C34.6752 13.4804 34.6918 13.3683 34.7129 13.3128C34.7333 13.2578 34.7583 13.12 34.7677 13.0062C34.7777 12.8925 34.8109 12.7384 34.8419 12.6638C34.8729 12.5887 34.8984 12.4901 34.8984 12.4439C34.8984 12.3981 34.9183 12.2789 34.9422 12.1798C35.0541 11.7165 35.0607 11.1928 34.9571 10.9772C34.9261 10.913 34.8923 10.8084 34.8818 10.7447C34.8713 10.6816 34.8286 10.5602 34.7865 10.4747C34.6364 10.1715 34.5954 10.0218 34.5794 9.71526C34.5711 9.55302 34.5589 9.41528 34.5517 9.4093C34.545 9.40276 34.427 9.41147 34.2891 9.42781C34.1069 9.44958 33.995 9.45067 33.877 9.43053C33.7878 9.41528 33.6577 9.40276 33.5868 9.40276C33.5098 9.40276 33.4311 9.3848 33.3896 9.35758C33.3519 9.33308 33.2583 9.28354 33.183 9.24815C33.1071 9.21222 33.0096 9.16649 32.9664 9.14634C32.9232 9.12566 32.8878 9.09299 32.8878 9.07339C32.8878 9.0527 32.8667 9.04127 32.839 9.04617C32.7864 9.05597 32.787 9.04617 32.8174 9.55792C32.8324 9.80999 32.7493 10.1873 32.6341 10.3903C32.6197 10.4148 32.6086 10.4638 32.6086 10.4987C32.6086 10.5335 32.5721 10.6179 32.5277 10.686C32.4834 10.7545 32.4253 10.8743 32.3987 10.9527C32.3156 11.1982 32.2785 11.2625 32.2198 11.2625C32.1589 11.2625 32.1334 11.2908 32.0918 11.4024C32.0763 11.4432 32.0392 11.4901 32.0087 11.5053C31.919 11.5516 31.5961 11.8058 31.5346 11.8793C31.4488 11.9811 31.343 12.0617 31.2942 12.0628C31.2704 12.0628 31.2261 12.0802 31.1967 12.1014C31.1668 12.1221 31.1197 12.1395 31.0921 12.1401C31.0638 12.1406 30.9951 12.1744 30.9381 12.2147C30.8583 12.2724 30.7763 12.2985 30.5697 12.3312C30.4241 12.354 30.2141 12.3889 30.1039 12.4079C29.9937 12.427 29.8369 12.4373 29.755 12.4319C29.6735 12.4259 29.4559 12.4395 29.2714 12.4629C28.8599 12.5141 28.9025 12.5119 28.7663 12.4896C28.6588 12.4727 28.6505 12.476 28.6217 12.5451C28.6051 12.5854 28.5835 12.6616 28.5741 12.7139C28.5624 12.7803 28.5392 12.8146 28.4982 12.8266C28.4107 12.8527 28.2218 12.7852 28.1381 12.6987C28.0706 12.6284 28.0578 12.6246 27.9836 12.6535C27.9393 12.6703 27.8606 12.7242 27.8097 12.7732C27.7576 12.8222 27.6551 12.8805 27.5787 12.9039C27.4258 12.9507 27.3865 12.9981 27.3865 13.1342C27.3865 13.2071 27.4109 13.2518 27.5023 13.3432C27.566 13.4069 27.659 13.4777 27.7089 13.4995C27.8036 13.5409 27.9177 13.6394 28.1536 13.8828C28.2301 13.9617 28.3121 14.0265 28.3359 14.0265C28.3597 14.0265 28.404 14.0423 28.4345 14.0613C28.4644 14.0804 28.5491 14.1169 28.6222 14.1424C28.6948 14.168 28.7546 14.198 28.7546 14.2094C28.7546 14.2203 28.8333 14.3036 28.9291 14.394C29.0249 14.4838 29.1263 14.59 29.154 14.6292C29.1822 14.6689 29.226 14.7081 29.252 14.7168C29.3251 14.7408 29.391 14.8137 29.4016 14.8818C29.4066 14.9161 29.4381 14.9547 29.4714 14.9683C29.5334 14.9934 29.6763 15.2443 29.6763 15.3276C29.6763 15.3973 29.7273 15.4708 29.863 15.5988C29.9604 15.6897 29.9837 15.7278 29.9704 15.7751C29.9604 15.8127 29.9737 15.8617 30.007 15.9063C30.0358 15.945 30.0806 16.0092 30.1061 16.049C30.1344 16.0915 30.187 16.1268 30.2357 16.1361C30.2939 16.1464 30.3183 16.1666 30.3183 16.2025C30.3183 16.2646 30.542 16.4633 30.6955 16.5368C30.7569 16.5662 30.8605 16.6353 30.9253 16.6903C30.9901 16.7453 31.0605 16.7905 31.0815 16.7905C31.1026 16.7905 31.1436 16.815 31.1729 16.8449C31.2023 16.8749 31.2843 16.9266 31.3552 16.9598C31.4266 16.9935 31.492 17.0382 31.5003 17.0594C31.5091 17.0807 31.5645 17.1226 31.6227 17.1525C31.857 17.2717 31.8974 17.2962 31.9318 17.3382C31.9517 17.3627 31.9838 17.3768 32.0032 17.3697C32.0226 17.3632 32.1018 17.4127 32.1788 17.4808C32.2558 17.5489 32.3715 17.6485 32.4369 17.7024C32.5056 17.7595 32.5615 17.8319 32.5715 17.8777C32.5804 17.9201 32.6286 17.9866 32.6784 18.0247C32.7277 18.0633 32.7836 18.1221 32.8025 18.1553C32.8213 18.1885 32.8784 18.2321 32.9304 18.2517C33.0213 18.2871 33.1669 18.433 33.1669 18.4896C33.1669 18.5048 33.1996 18.5533 33.2395 18.5968C33.291 18.6535 33.3359 18.6763 33.3968 18.6763C33.4433 18.6763 33.5209 18.6981 33.5685 18.7253C33.6167 18.752 33.6992 18.7825 33.7524 18.7928C33.8599 18.8141 33.9086 18.8369 34.0703 18.9409C34.1313 18.9801 34.1977 19.0122 34.2182 19.0122C34.2393 19.0122 34.2559 19.0351 34.2559 19.0629C34.2559 19.0906 34.2797 19.1342 34.308 19.1598C34.3639 19.2093 34.396 19.303 34.4093 19.4581C34.4198 19.5752 34.4586 19.6231 34.5805 19.6704C34.6414 19.6938 34.6918 19.7423 34.7322 19.8174C34.766 19.8789 34.8148 19.9524 34.8419 19.9808C34.8951 20.0374 34.982 20.2693 34.982 20.3548C34.982 20.4152 35.0773 20.6014 35.1216 20.6264C35.1371 20.6351 35.1499 20.6738 35.1499 20.7119C35.1499 20.8066 35.2463 20.9455 35.3321 20.9754C35.4169 21.0053 35.4612 21.0979 35.4229 21.1654C35.3858 21.2313 35.4191 21.3723 35.4855 21.4278C35.5232 21.4594 35.5409 21.5073 35.5409 21.5797C35.5409 21.6401 35.5653 21.7223 35.5969 21.7702C35.6273 21.8165 35.6528 21.8808 35.6534 21.9123C35.6539 21.9439 35.6722 21.9989 35.6944 22.0343C35.7165 22.0697 35.7348 22.1219 35.7353 22.1497C35.7359 22.1775 35.7941 22.2493 35.8655 22.3098C35.9735 22.4018 35.9912 22.4301 35.9763 22.4856C35.958 22.5537 36.0056 22.6647 36.1031 22.7807C36.1319 22.8144 36.1552 22.8738 36.1552 22.913C36.1552 22.9522 36.1729 22.9974 36.194 23.0137C36.2156 23.03 36.2394 23.0866 36.2471 23.1395C36.2693 23.2908 36.3092 23.4106 36.3912 23.5706C36.4388 23.6643 36.4609 23.741 36.4504 23.7791C36.4382 23.8238 36.4482 23.8428 36.4892 23.8554C36.5191 23.8641 36.5761 23.9071 36.616 23.9506C36.6753 24.016 36.6869 24.053 36.6819 24.1597C36.6758 24.2756 36.6842 24.2963 36.7645 24.3622C36.8132 24.403 36.8531 24.4569 36.8531 24.482C36.8531 24.5076 36.888 24.5582 36.9301 24.5947C37.0675 24.7128 37.2441 24.8985 37.2441 24.9246C37.2441 24.9502 37.4812 25.1081 37.52 25.1081C37.5648 25.1081 37.9581 25.4549 37.9902 25.5224C38.0091 25.5616 38.0589 25.6182 38.1021 25.6476C38.1448 25.677 38.2018 25.7211 38.229 25.7456C38.2993 25.8087 38.3337 25.7641 38.3525 25.5833C38.3735 25.3852 38.4273 25.3024 38.5574 25.2665C38.7075 25.2246 38.7546 25.2295 38.9535 25.3084C39.2143 25.4118 39.5616 25.6781 39.5627 25.7744C39.5627 25.7989 39.612 25.8675 39.6719 25.9274C39.7317 25.9873 39.7893 26.0597 39.7993 26.0886C39.8092 26.1179 39.8292 26.1414 39.8436 26.1414C39.8901 26.1414 39.8707 26.2453 39.8098 26.3216L39.7505 26.3956L39.8098 26.5094C39.9001 26.6814 39.889 26.7282 39.7206 26.879C39.5771 27.0075 39.5655 27.0124 39.3811 27.026C39.2293 27.0375 39.1645 27.0298 39.0631 26.9896C38.9618 26.9498 38.9213 26.9449 38.8687 26.9672C38.8111 26.9917 38.8045 27.0075 38.8205 27.0843C38.8416 27.1904 38.7945 27.289 38.6377 27.4637C38.5779 27.5302 38.5286 27.6031 38.5286 27.626C38.5286 27.6777 38.3913 27.9336 38.3569 27.9456C38.2805 27.9728 38.1708 28.0882 38.1559 28.1579C38.1464 28.202 38.1127 28.2717 38.0811 28.3125C38.0113 28.4034 37.7914 28.5439 37.7188 28.5439C37.6828 28.5439 37.6485 28.5803 37.6119 28.6566C37.5698 28.7442 37.5239 28.7872 37.4048 28.8504C37.3206 28.895 37.2192 28.9315 37.1793 28.9315C37.1395 28.9315 37.0752 28.9451 37.0359 28.9614C36.9417 29.0012 36.8681 28.9631 36.7479 28.8134C36.6282 28.6642 36.5313 28.6571 36.4222 28.7894C36.3812 28.8389 36.3075 28.8988 36.2582 28.9222C36.2095 28.9451 36.1253 28.9985 36.0716 29.0398C36.0178 29.0812 35.9442 29.1378 35.9082 29.165C35.8727 29.1928 35.8284 29.2157 35.8107 29.2157C35.7929 29.2157 35.6722 29.3066 35.5426 29.4171L35.3072 29.6185L35.3454 29.7465C35.367 29.8167 35.4257 29.9245 35.4767 29.986C35.5271 30.0475 35.5769 30.1287 35.5863 30.1668C35.5963 30.2049 35.614 30.2473 35.6257 30.2615C35.6379 30.2757 35.67 30.3399 35.6977 30.4036C35.7254 30.4678 35.7874 30.568 35.8356 30.6268C35.9624 30.7809 35.989 31.0068 35.8982 31.1603C35.8068 31.3155 35.6462 31.3852 35.3831 31.3852H35.182L35.1172 31.2757C35.0003 31.0787 34.6674 30.9926 34.4232 31.0972C34.2936 31.1522 34.1135 31.2148 33.9557 31.2589C33.9058 31.273 33.8449 31.3128 33.8205 31.3471C33.795 31.383 33.7374 31.4167 33.6854 31.4255C33.6355 31.4342 33.5408 31.487 33.4749 31.5425C33.4046 31.6018 33.3276 31.6438 33.2877 31.6438C33.2506 31.6438 33.1736 31.6726 33.1171 31.708C33.0606 31.7439 32.998 31.7728 32.9775 31.7728C32.957 31.7728 32.8872 31.8223 32.8224 31.8828C32.7 31.9965 32.5139 32.1343 32.4823 32.1343C32.4474 32.1343 32.1461 32.3624 32.0337 32.4735C31.9716 32.5355 31.8525 32.639 31.7695 32.7027C31.4665 32.9373 30.9303 33.4578 30.6894 33.7523C30.6329 33.8214 30.5731 33.8829 30.557 33.8889C30.4955 33.9118 29.9837 34.3811 29.9837 34.4154C29.9837 34.4268 29.9239 34.4927 29.8508 34.5618C29.7057 34.7001 29.6353 34.7758 29.4669 34.9778C29.4054 35.0518 29.2858 35.1836 29.2016 35.2707C29.1169 35.3578 28.9978 35.4852 28.9363 35.5532C28.8748 35.6218 28.7269 35.7726 28.6078 35.8886C28.4888 36.0045 28.3608 36.1591 28.3231 36.2316C28.2511 36.3693 28.1509 36.4548 27.9515 36.5484C27.8867 36.5794 27.8329 36.6165 27.8329 36.6317C27.8329 36.6464 27.7654 36.7248 27.6834 36.8054C27.6009 36.8859 27.5211 36.9752 27.5061 37.0035C27.489 37.0362 27.4879 37.15 27.5028 37.3139C27.5161 37.4559 27.5344 37.6906 27.5433 37.8354C27.5538 38.0161 27.5709 38.1087 27.5981 38.1294C27.6197 38.1457 27.6374 38.1691 27.6374 38.1811C27.6374 38.1931 27.6679 38.2443 27.7055 38.2949C27.7427 38.3461 27.782 38.425 27.792 38.4707C27.8025 38.5165 27.8346 38.5769 27.8629 38.6058C27.9249 38.6689 28.0578 38.9346 28.1409 39.1621C28.1741 39.2536 28.2378 39.3745 28.2827 39.4305C28.327 39.4866 28.3636 39.5519 28.3636 39.5759C28.3636 39.5999 28.3819 39.6331 28.404 39.6505C28.4262 39.6674 28.4588 39.7223 28.4771 39.7719C28.4948 39.8214 28.5392 39.9107 28.5757 39.9701C28.6123 40.0294 28.6422 40.1192 28.6427 40.1699C28.6433 40.3027 28.7175 40.5183 28.8272 40.7034C28.9058 40.8368 28.9252 40.8999 28.9369 41.0698C28.9457 41.1923 28.974 41.3218 29.0072 41.3921C29.0454 41.4721 29.0626 41.5608 29.0609 41.6719C29.0576 41.8771 29.087 42.1107 29.1202 42.1428C29.134 42.1564 29.1457 42.2049 29.1457 42.2512C29.1457 42.2974 29.1567 42.341 29.17 42.3492C29.2299 42.3829 29.2216 42.5065 29.1518 42.6263C29.0858 42.739 29.0836 42.7537 29.123 42.7956C29.2199 42.8974 29.2642 43.0133 29.2321 43.0792C29.2155 43.113 29.2016 43.1598 29.2016 43.1832C29.2016 43.2061 29.18 43.2469 29.1545 43.273C29.1141 43.3139 29.1124 43.3345 29.1401 43.4064C29.1584 43.4532 29.1734 43.5207 29.1734 43.5572C29.1734 43.5937 29.1928 43.6656 29.216 43.7173C29.252 43.7978 29.2531 43.8213 29.2204 43.8817C29.1833 43.9497 29.1772 44.1169 29.2083 44.198C29.2166 44.2192 29.2415 44.382 29.2631 44.5595C29.3046 44.8959 29.3052 45.3565 29.2653 46.3762C29.2487 46.8063 29.2515 46.9467 29.2769 46.9663C29.3268 47.0044 29.3689 46.9685 29.3689 46.8879C29.3689 46.8493 29.385 46.8025 29.4038 46.785C29.4232 46.7671 29.4409 46.7214 29.4431 46.6827C29.4453 46.6446 29.4675 46.5025 29.4919 46.3675C29.5162 46.2325 29.5362 46.0033 29.5362 45.8579C29.5367 45.6102 29.5423 45.5835 29.627 45.4338C29.7821 45.16 29.8901 45.0772 30.4163 44.8284C30.6772 44.7048 30.9514 44.5633 31.0256 44.5137C31.1508 44.4294 31.1696 44.4245 31.3097 44.4397C31.3928 44.449 31.4665 44.4468 31.4742 44.4348C31.4825 44.4228 31.5778 44.3978 31.6858 44.3787C31.7944 44.3597 31.8969 44.3286 31.914 44.3101C31.9312 44.2911 31.9672 44.2753 31.9943 44.2753C32.0209 44.2753 32.0586 44.2579 32.078 44.2366C32.0968 44.2154 32.1522 44.198 32.1998 44.198C32.2918 44.198 32.6147 44.0641 32.792 43.953C32.849 43.9171 32.9193 43.8877 32.9487 43.8877C32.9781 43.8877 33.0423 43.8496 33.0916 43.8022C33.209 43.69 33.4101 43.5447 33.5209 43.4919C33.5691 43.4685 33.6322 43.4233 33.6605 43.3912C33.6887 43.3585 33.7463 43.3117 33.7884 43.2866C33.8388 43.2567 33.8654 43.2186 33.8654 43.1761C33.8654 43.1402 33.9152 43.0231 33.9767 42.9159C34.0382 42.8086 34.0886 42.6872 34.0886 42.6459C34.0886 42.5637 34.1772 42.4618 34.2343 42.4787C34.2542 42.4842 34.3041 42.4956 34.3456 42.5038C34.4016 42.5152 34.4282 42.5419 34.447 42.605C34.4802 42.7161 34.4553 42.9486 34.406 42.9867C34.3849 43.0024 34.3678 43.027 34.3678 43.0406C34.3678 43.0547 34.324 43.1484 34.2703 43.2491C34.2166 43.3503 34.1723 43.4712 34.1723 43.5186C34.1723 43.5997 34.1772 43.6035 34.2492 43.5877C34.2913 43.5779 34.3595 43.549 34.3999 43.5224C34.4409 43.4962 34.4863 43.4745 34.5013 43.4745C34.5162 43.4745 34.5456 43.4554 34.5666 43.432C34.5882 43.4086 34.6375 43.3765 34.6768 43.3607C34.7871 43.3171 35.0673 43.0912 35.2025 42.9371C35.4024 42.7085 35.5886 42.6404 35.7082 42.7515C35.768 42.8065 35.7819 42.9366 35.7392 43.0411C35.7254 43.0749 35.6246 43.1848 35.5154 43.2855C35.336 43.4521 35.3172 43.4788 35.3172 43.573C35.3172 43.6612 35.2928 43.7042 35.1538 43.8615C35.064 43.9633 34.951 44.0684 34.9028 44.0962C34.8042 44.1512 34.7954 44.1768 34.8563 44.2236C34.8796 44.2415 34.8984 44.2704 34.8984 44.2884C34.8984 44.3401 34.6697 44.6112 34.6259 44.6112C34.6043 44.6112 34.5367 44.6433 34.4763 44.682C34.3761 44.7468 34.3678 44.7609 34.3833 44.8404C34.3949 44.9041 34.3822 44.9585 34.3351 45.0407C34.2991 45.1028 34.2609 45.1534 34.2492 45.1534C34.2376 45.1534 34.2282 45.1747 34.2282 45.2008C34.2282 45.2552 34.1174 45.3598 34.0587 45.3609C34.0365 45.3614 33.9762 45.3941 33.9241 45.4344C33.8322 45.5051 33.8311 45.5079 33.8759 45.5721C33.9357 45.6559 33.8964 45.7735 33.8089 45.7735C33.7757 45.7735 33.6826 45.8383 33.5879 45.9265C33.4982 46.0109 33.373 46.104 33.3093 46.1339C33.2101 46.1807 33.198 46.1954 33.2223 46.2374C33.2905 46.355 33.2328 46.4606 33.0899 46.4802C33.0401 46.4867 32.9609 46.5226 32.9133 46.5591C32.8662 46.5961 32.8041 46.6261 32.7759 46.6261C32.7476 46.6261 32.7044 46.644 32.6806 46.6664C32.6413 46.7028 32.6413 46.7121 32.6812 46.7682C32.7499 46.8651 32.6983 46.9108 32.443 46.9789C32.068 47.079 32.027 47.0997 32.0171 47.1983C32.0093 47.2718 31.9894 47.2924 31.8825 47.3398C31.8132 47.3703 31.7468 47.3893 31.7346 47.3828C31.6819 47.354 31.4183 47.4378 31.3518 47.5048C31.3136 47.5434 31.2316 47.5897 31.1702 47.6071C30.9796 47.6626 30.9619 47.6763 30.9203 47.7982C30.9059 47.8412 30.8843 47.8456 30.7503 47.8325C30.6057 47.8189 30.5935 47.8222 30.5498 47.8869C30.5243 47.9251 30.4722 47.9806 30.434 48.0105C30.3404 48.0835 30.3687 48.1303 30.5315 48.1717C30.7414 48.225 30.8422 48.2816 30.9619 48.4129C31.0832 48.5457 31.1391 48.6551 31.1092 48.6998C31.0987 48.7161 31.0882 48.9039 31.086 49.1173C31.0815 49.4973 31.0488 49.7069 30.9458 50.0102C30.9242 50.0739 30.8943 50.1904 30.8799 50.2682C30.8655 50.3466 30.8328 50.48 30.8068 50.5655C30.7586 50.725 30.7636 50.787 30.8539 51.1072C30.8849 51.2166 31.0073 51.448 31.0461 51.4703C31.102 51.5019 31.2399 51.7229 31.2399 51.7801C31.2399 51.816 31.2638 51.8541 31.2959 51.8699C31.3286 51.8857 31.3518 51.9238 31.3518 51.9608C31.3518 51.9951 31.374 52.0735 31.4006 52.1339C31.4405 52.2243 31.4493 52.3245 31.4493 52.6876V53.1313L31.3291 53.2924C31.2117 53.452 31.2095 53.4574 31.2377 53.5717C31.2843 53.7623 31.2388 53.9583 31.107 54.1434C31.0815 54.176 31.0306 54.2904 30.9929 54.3884C30.9143 54.6007 30.8638 54.6715 30.6617 54.8566L30.5127 54.9981L30.1853 54.9927C29.9012 54.9927 29.8491 54.9872 29.7915 54.9437ZM27.7194 33.8503C27.8241 33.7566 27.9454 33.6586 27.9897 33.6325C28.034 33.6064 28.1586 33.5073 28.2661 33.412C28.3735 33.3173 28.5148 33.2182 28.5801 33.1915C28.6455 33.1654 28.6987 33.1317 28.6987 33.117C28.6987 33.0739 28.7901 33.0015 28.9562 32.9133C29.0421 32.8682 29.1191 32.8143 29.1274 32.7941C29.1357 32.774 29.2121 32.7266 29.2969 32.6896C29.3822 32.6526 29.4797 32.5856 29.514 32.541C29.5993 32.4299 29.7267 32.3237 29.8436 32.2649C29.8973 32.2383 30.0081 32.1588 30.0901 32.0886C30.1715 32.0178 30.2679 31.9481 30.3044 31.9328C30.3886 31.8975 30.5454 31.775 31.0029 31.389C31.0644 31.3373 31.1497 31.2779 31.1929 31.2572C31.2361 31.2365 31.2909 31.1903 31.3147 31.1543C31.338 31.1179 31.4094 31.0651 31.4731 31.0367C31.5368 31.0084 31.6011 30.9594 31.616 30.9284C31.631 30.8974 31.662 30.8653 31.6858 30.8565C31.8863 30.7863 32.2951 30.3584 32.4397 30.0682C32.4928 29.9615 32.5776 29.8227 32.628 29.7601C32.679 29.6975 32.7199 29.6256 32.7199 29.6C32.7199 29.5744 32.7515 29.5107 32.7897 29.4585C32.8285 29.4062 32.8601 29.3349 32.8601 29.2995C32.8601 29.2647 32.8795 29.165 32.9038 29.0785C32.9398 28.9495 32.9421 28.9021 32.9144 28.8117C32.8761 28.6843 32.8329 28.6451 32.6784 28.5978C32.4729 28.5341 32.4629 28.509 32.5565 28.2864C32.6574 28.0446 32.674 28.019 32.8169 27.8922C32.9631 27.7621 33.0728 27.7338 33.1392 27.8078C33.1581 27.829 33.2074 27.8465 33.2489 27.8465C33.3204 27.8465 33.4865 27.9624 33.5464 28.0539C33.5602 28.0757 33.651 28.1454 33.7474 28.2091C33.8443 28.2722 33.98 28.3631 34.0493 28.4105C34.1939 28.5096 34.2049 28.5058 34.339 28.313C34.4232 28.1911 34.4243 28.1851 34.4187 27.8824L34.4132 27.5753L34.5367 27.3298C34.6575 27.0897 34.6602 27.0788 34.6552 26.8388C34.6503 26.5736 34.6619 26.5426 34.8829 26.2443C34.93 26.18 34.9865 26.0793 35.0075 26.0205C35.0435 25.9181 35.0413 25.9051 34.9593 25.7434C34.9123 25.6498 34.8613 25.5735 34.8469 25.5735C34.8319 25.5735 34.7865 25.5202 34.7455 25.4554C34.7045 25.3912 34.6026 25.2719 34.519 25.1908C34.4088 25.0846 34.2902 24.9142 34.0936 24.5789C33.8371 24.1423 33.7773 24.0268 33.6798 23.783C33.6582 23.7285 33.5934 23.624 33.5358 23.5499C33.4788 23.4764 33.4129 23.3823 33.3902 23.3409C33.3674 23.2995 33.2971 23.2124 33.234 23.1471C33.1708 23.0823 33.0672 22.9603 33.0035 22.8765C32.9398 22.7927 32.8113 22.6587 32.7172 22.5792C32.5228 22.4154 32.1589 22.025 32.0819 21.8987C32.0536 21.8525 31.9921 21.7506 31.9445 21.6728C31.8974 21.5944 31.8121 21.4028 31.7556 21.2465C31.641 20.9308 31.5623 20.7908 31.4366 20.6792C31.39 20.6379 31.3518 20.5802 31.3518 20.5508C31.3507 20.3967 31.1934 20.0548 31.0649 19.929C31.0361 19.9007 30.9846 19.837 30.9508 19.7875C30.917 19.7385 30.8461 19.6721 30.7924 19.641C30.7392 19.6095 30.6561 19.5539 30.6079 19.5175C30.5598 19.481 30.5066 19.451 30.49 19.451C30.4612 19.451 30.2662 19.365 29.9278 19.2022C29.6403 19.064 29.3811 18.8892 29.3041 18.782C29.2625 18.7237 29.2155 18.6763 29.1988 18.6763C29.1828 18.6763 29.0066 18.525 28.8072 18.3404C28.6084 18.1559 28.4345 18.0045 28.4217 18.0045C28.4084 18.0045 28.3769 17.9632 28.3508 17.9125C28.3248 17.8619 28.2855 17.8145 28.2639 17.8064C28.2417 17.7987 28.224 17.7775 28.224 17.759C28.224 17.6904 27.9016 17.4574 27.7327 17.4035C27.6418 17.3752 27.5427 17.3354 27.5128 17.3164C27.4823 17.2973 27.4402 17.2815 27.4197 17.2815C27.3987 17.2815 27.3067 17.2407 27.2148 17.1912C27.1234 17.1411 27.0303 17.1003 27.0087 17.1003C26.9871 17.1003 26.9545 17.1471 26.9362 17.2042C26.9174 17.2614 26.8858 17.3207 26.8653 17.3365C26.8442 17.3523 26.8276 17.3806 26.8276 17.3997C26.8276 17.4182 26.7722 17.4884 26.7041 17.5548C26.6138 17.643 26.5706 17.7122 26.5462 17.808C26.5086 17.9561 26.456 18.059 26.3175 18.2555C26.21 18.4079 26.0018 18.6246 25.963 18.6246C25.9486 18.6246 25.8954 18.6714 25.845 18.7291C25.7941 18.7868 25.7077 18.8554 25.6528 18.8827C25.598 18.9093 25.4767 18.9986 25.3836 19.0814C25.2269 19.2207 25.2069 19.2512 25.1133 19.5038C25.0153 19.769 24.9798 20.0238 25.0369 20.0564C25.0507 20.064 25.1543 20.0597 25.2668 20.0466C25.3797 20.0336 25.485 20.0314 25.5005 20.0412C25.5365 20.0646 25.7054 20.0619 25.9131 20.0347C26.0289 20.0194 26.086 20.0227 26.1159 20.0455C26.1491 20.0711 26.1663 20.0706 26.2001 20.0445C26.2327 20.02 26.2593 20.0189 26.3114 20.0406C26.3491 20.0564 26.4897 20.082 26.6249 20.0973C26.8758 20.1261 27.2491 20.2263 27.5959 20.3586C27.7033 20.3994 27.8174 20.4326 27.8496 20.4326C27.8872 20.4326 28.0218 20.5366 28.2201 20.7179C28.491 20.9656 28.5475 21.0053 28.6549 21.0239C28.7225 21.0358 28.8388 21.0865 28.913 21.1365C29.1141 21.2721 29.3789 21.3881 29.4486 21.3712C29.4819 21.363 29.5085 21.3685 29.5085 21.3826C29.5085 21.3962 29.5716 21.4333 29.6481 21.4637C29.725 21.4942 29.7876 21.5312 29.7876 21.5454C29.7876 21.5911 29.9383 21.7523 30.0169 21.7909C30.0585 21.8111 30.1322 21.828 30.1809 21.828C30.2379 21.828 30.3183 21.8601 30.4036 21.9162C30.4767 21.9651 30.6323 22.0419 30.7486 22.0866C30.8655 22.1317 30.968 22.1791 30.9768 22.1927C30.9857 22.2058 31.0732 22.2635 31.1707 22.3207C31.3546 22.4279 31.3452 22.4159 31.5335 22.7965C31.6271 22.9859 31.6869 23.1514 31.6869 23.2217C31.6869 23.2554 31.7041 23.3017 31.7246 23.324C31.7872 23.391 31.8265 23.5314 31.8265 23.6877C31.8265 23.8314 31.8226 23.839 31.6443 24.0323C31.544 24.1412 31.4526 24.2299 31.4416 24.2299C31.4305 24.2299 31.405 24.2544 31.3851 24.2838C31.3396 24.3508 31.3762 24.3987 31.4897 24.4194C31.5346 24.4281 31.5878 24.4537 31.6077 24.4771C31.6282 24.4999 31.6709 24.544 31.703 24.5745C31.7346 24.6056 31.7689 24.6507 31.7789 24.6758C31.7888 24.7003 31.816 24.721 31.8398 24.721C31.8631 24.721 31.8825 24.7308 31.8825 24.7433C31.8825 24.7558 31.9234 24.7814 31.9733 24.7999C32.0231 24.8179 32.0974 24.8544 32.1378 24.8805C32.1788 24.9061 32.2386 24.9273 32.2707 24.9273C32.3145 24.9273 32.3294 24.9436 32.3294 24.9916C32.3294 25.0269 32.3732 25.1326 32.4269 25.2262C32.4807 25.3198 32.525 25.4184 32.525 25.4445C32.525 25.4712 32.5372 25.5 32.5527 25.5087C32.5682 25.5175 32.5804 25.6002 32.5804 25.6922C32.5804 25.7935 32.5975 25.8909 32.6241 25.9377C32.6574 25.9971 32.6629 26.0564 32.6485 26.1914C32.6335 26.3324 32.638 26.3727 32.6707 26.3907C32.7709 26.4451 32.7332 26.7359 32.6258 26.7359C32.5549 26.7359 32.5039 26.8279 32.4868 26.9885C32.4773 27.0783 32.4552 27.1763 32.4375 27.2062C32.4203 27.2367 32.4042 27.3189 32.4026 27.3897C32.3987 27.5307 32.335 27.6037 32.2685 27.5427C32.2237 27.5008 32.191 27.2302 32.2214 27.154C32.2696 27.0331 32.2497 26.8731 32.1755 26.7919C32.1372 26.75 32.1057 26.7016 32.1057 26.6847C32.1057 26.6678 32.0658 26.6025 32.0176 26.5399C31.9495 26.4528 31.9257 26.3907 31.9157 26.2775C31.9046 26.1484 31.8897 26.1163 31.8021 26.0363C31.6327 25.8822 31.4731 25.6601 31.4382 25.5294C31.3396 25.163 31.3324 25.1494 31.2056 25.095C31.0849 25.0427 31.05 24.9867 31.0023 24.7651C30.9802 24.6616 30.9209 24.6529 30.7658 24.7308C30.6545 24.7874 30.5575 24.8065 30.2296 24.8397C29.7749 24.8854 29.6187 24.8876 29.4475 24.8511C29.3811 24.8369 29.2886 24.825 29.2409 24.825C29.1484 24.8239 28.9441 24.7112 28.8078 24.5854C28.7325 24.5157 28.5314 24.1679 28.5314 24.1074C28.5314 24.0366 28.2428 23.5636 28.1188 23.4296C27.9487 23.2467 27.8889 23.1411 27.8889 23.0246C27.8889 22.9886 27.8523 22.9086 27.808 22.8476C27.7631 22.7867 27.7177 22.7099 27.7067 22.6778C27.6407 22.4867 27.5205 22.399 27.443 22.4851C27.4236 22.5074 27.3804 22.5254 27.3472 22.5254C27.3139 22.5254 27.2624 22.5411 27.232 22.5602C27.1278 22.6266 26.9528 22.6642 26.7157 22.6718C26.5856 22.6762 26.3967 22.6854 26.297 22.6919C26.1973 22.699 26.0688 22.7045 26.0117 22.705C25.824 22.7066 25.8195 22.8117 25.9951 23.0932C26.0079 23.115 26.0561 23.2021 26.1015 23.287C26.1469 23.3725 26.2206 23.4656 26.2643 23.4939C26.3086 23.5222 26.3989 23.5832 26.4648 23.6294C26.5307 23.6757 26.6171 23.7138 26.6576 23.7144C26.6975 23.7149 26.7545 23.7323 26.7844 23.753C26.8138 23.7737 26.8609 23.7911 26.8891 23.7911C26.9168 23.7911 26.9644 23.814 26.9955 23.8423C27.0259 23.8711 27.0863 23.894 27.1295 23.894C27.1727 23.894 27.2491 23.9223 27.2995 23.9572C27.3505 23.9915 27.4441 24.0274 27.5078 24.0372C27.6385 24.0568 27.7172 24.1145 27.8374 24.2795C27.8961 24.3589 27.916 24.4112 27.9044 24.4542C27.8928 24.4956 27.9011 24.5201 27.9299 24.5304C27.9537 24.5386 27.9725 24.562 27.9725 24.5827C27.9725 24.6486 28.1043 24.7466 28.193 24.7466C28.2389 24.7466 28.2855 24.7596 28.296 24.7754C28.3065 24.7912 28.373 24.8277 28.4439 24.8565C28.5148 24.8848 28.6089 24.948 28.6533 24.997C28.753 25.107 29.0166 25.2218 29.2642 25.2632C29.3678 25.2806 29.4525 25.3024 29.4525 25.3122C29.4525 25.3215 29.5096 25.3857 29.5783 25.4554C29.709 25.5871 29.7389 25.6846 29.6575 25.7134C29.6148 25.7287 29.6143 25.7336 29.6541 25.7706C29.6824 25.7967 29.7677 25.8158 29.8895 25.8234C29.9948 25.83 30.1061 25.8452 30.1371 25.8577C30.1676 25.8697 30.2523 25.8871 30.3249 25.8958C30.3975 25.9045 30.4634 25.922 30.4717 25.9339C30.4794 25.9465 30.5365 25.9639 30.598 25.9737C30.6899 25.9878 30.7564 26.0336 30.9774 26.2334C31.2006 26.4359 31.2505 26.4958 31.2809 26.5992C31.3014 26.6673 31.3263 26.7424 31.3369 26.7658C31.3718 26.8442 31.2582 26.9166 31.1015 26.9166C30.9192 26.9166 30.8832 26.9683 30.9619 27.1186C30.9918 27.1768 31.0167 27.2384 31.0167 27.2552C31.0167 27.2727 31.0378 27.3086 31.0632 27.3347C31.0926 27.3647 31.112 27.4354 31.1164 27.5302C31.1197 27.6118 31.1364 27.7104 31.153 27.7496C31.1785 27.81 31.1724 27.835 31.1114 27.9172C30.9984 28.0719 30.8439 28.1219 30.7226 28.0435C30.6423 27.9913 30.4074 28.0288 30.3415 28.1045C30.2529 28.2052 30.2756 28.2733 30.4285 28.3648C30.5044 28.4099 30.5736 28.4638 30.5819 28.484C30.5902 28.5041 30.6179 28.5172 30.6434 28.5128C30.6689 28.5085 30.6955 28.5199 30.7021 28.5373C30.7093 28.5569 30.6899 28.57 30.6545 28.57C30.619 28.57 30.5775 28.5983 30.5509 28.6408C30.5265 28.68 30.4551 28.7437 30.3919 28.7823C30.3282 28.821 30.2202 28.8928 30.151 28.9418C29.9754 29.066 29.7682 29.164 29.6813 29.164C29.6414 29.164 29.5578 29.1803 29.4957 29.2004C29.4337 29.2206 29.2952 29.2554 29.1872 29.2777C29.0305 29.3104 28.974 29.3365 28.9014 29.4089C28.8516 29.4585 28.8106 29.5102 28.8106 29.5244C28.8106 29.5652 28.8975 29.5946 29.072 29.6131C29.3778 29.6447 29.4248 29.7274 29.2105 29.8586C29.139 29.9027 29.0703 29.9387 29.0582 29.9387C29.021 29.9387 28.7823 30.0965 28.7823 30.121C28.7823 30.1493 28.5896 30.2669 28.4334 30.3344C28.1337 30.4629 28.0578 30.4782 27.7199 30.4793C27.5283 30.4798 27.3815 30.4695 27.3715 30.4548C27.345 30.4145 27.1649 30.3519 27.0763 30.3519C26.9705 30.3519 26.8902 30.4575 26.9323 30.5408C27.0525 30.7749 27.1788 31.1538 27.2065 31.3596C27.217 31.4374 27.2502 31.5392 27.2802 31.585C27.3101 31.6312 27.3256 31.6819 27.3145 31.6977C27.2807 31.7483 27.2741 31.9824 27.3051 32.0357C27.3211 32.0635 27.3383 32.1816 27.3433 32.2976C27.3483 32.4141 27.366 32.701 27.3832 32.9351C27.3998 33.1698 27.4175 33.4953 27.422 33.6586C27.4297 33.9505 27.4452 34.0201 27.5017 34.0201C27.5172 34.0201 27.6153 33.9439 27.7194 33.8503ZM35.326 28.3147C35.4058 28.2455 35.5337 28.1377 35.6107 28.0757C35.6871 28.0136 35.7608 27.9477 35.773 27.9292C35.7857 27.9107 35.8195 27.9025 35.8483 27.9113C35.8832 27.9216 35.9104 27.9096 35.9298 27.8753C35.994 27.7648 35.8661 27.6657 35.6595 27.6657C35.5243 27.6657 35.4013 27.7185 35.4008 27.7768C35.4008 27.7937 35.3376 27.9009 35.2612 28.0141C35.0895 28.2695 35.0601 28.331 35.0812 28.3925C35.1078 28.4693 35.1715 28.4491 35.326 28.3147ZM28.8327 22.8329C28.8804 22.8177 28.9452 22.7682 28.9773 22.7235C29.0094 22.6783 29.0858 22.5776 29.1479 22.4992C29.4691 22.0936 29.4874 22.0299 29.3218 21.8895C29.2653 21.8416 29.1933 21.7947 29.1612 21.7855C29.1296 21.7762 29.0648 21.7414 29.0172 21.7076C28.9695 21.6744 28.8693 21.6358 28.7939 21.6222C28.6643 21.5988 28.6533 21.6009 28.5923 21.6674C28.5569 21.706 28.5048 21.7779 28.4766 21.828C28.4478 21.8775 28.3669 21.976 28.2965 22.0468C28.157 22.1867 28.1575 22.1807 28.2284 22.4791C28.2511 22.5771 28.2866 22.6255 28.4095 22.7306C28.5729 22.8705 28.6555 22.8901 28.8327 22.8329ZM26.5623 21.8927C26.9168 21.847 27.0553 21.8176 27.2464 21.7479C27.3311 21.7174 27.4724 21.6733 27.561 21.651C27.6734 21.6216 27.7216 21.5966 27.7216 21.5666C27.7216 21.5089 27.4546 21.3249 27.3162 21.2868C27.1998 21.2547 27.0409 21.2008 26.8974 21.1442C26.5429 21.0048 25.7808 20.9389 25.5902 21.0315C25.5625 21.0451 25.4357 21.0663 25.3083 21.0783C24.9992 21.1077 24.8619 21.1676 24.8502 21.2776C24.8375 21.3968 24.9161 21.4588 25.0823 21.4616C25.2379 21.4648 25.3033 21.5095 25.3498 21.6434C25.4063 21.8056 25.4512 21.8345 25.6179 21.8154C25.7298 21.8024 25.7797 21.8084 25.835 21.8421C25.9868 21.9341 26.1513 21.9455 26.5623 21.8927Z" fill="#63FFDA"/>
</svg>
